  <svg xmlns="http://www.w3.org/2000/svg" xmlns:xlink="http://www.w3.org/1999/xlink" version="1.1" id="Layer_1" x="0px" y="0px" width="612px" height="792px" viewBox="0 0 612 792" enable-background="new 0 0 612 792" xml:space="preserve">
    <circle fill="#36BEBD" cx="231.7" cy="500.4" r="53.2"/>
    <g>
      <g>
        <g>
          <g>
            <g>
              <polygon fill="none" points="275.1,501.3 275,503.5 277.3,503.7 277.4,501.4"/>
              <path fill-rule="evenodd" clip-rule="evenodd" fill="#FFFFFF" d="M276.155 503.613c-0.625-0.048-1.11-0.577-1.079-1.183 c0.03-0.604 0.566-1.086 1.193-1.074c0.627 0 1.1 0.5 1.1 1.182C277.315 503.2 276.8 503.7 276.2 503.613z"/>
            </g>
          </g>
          <g>
            <g>
              <polygon fill="none" points="274.9,505.5 274.5,507.7 276.8,508.1 277.1,505.8"/>
              <path fill-rule="evenodd" clip-rule="evenodd" fill="#FFFFFF" d="M275.642 507.884c-0.619-0.107-1.047-0.68-0.956-1.278 c0.092-0.598 0.673-1.025 1.297-0.956c0.623 0.1 1.1 0.6 1 1.277C276.84 507.6 276.3 508 275.6 507.884z"/>
            </g>
          </g>
          <g>
            <g>
              <polygon fill="none" points="274.2,509.7 273.6,511.8 275.8,512.4 276.4,510.1"/>
              <path fill-rule="evenodd" clip-rule="evenodd" fill="#FFFFFF" d="M274.725 512.086c-0.605-0.165-0.976-0.775-0.825-1.361 c0.151-0.587 0.773-0.956 1.387-0.827s0.983 0.7 0.8 1.361C275.952 511.9 275.3 512.3 274.7 512.086z"/>
            </g>
          </g>
          <g>
            <g>
              <polygon fill="none" points="273.1,513.7 272.3,515.8 274.5,516.6 275.3,514.4"/>
              <path fill-rule="evenodd" clip-rule="evenodd" fill="#FFFFFF" d="M273.412 516.182c-0.586-0.223-0.895-0.865-0.687-1.434 c0.208-0.568 0.865-0.876 1.463-0.688s0.907 0.8 0.7 1.433C274.654 516.1 274 516.4 273.4 516.182z"/>
            </g>
          </g>
          <g>
            <g>
              <polygon fill="none" points="271.6,517.6 270.7,519.6 272.7,520.6 273.7,518.5"/>
              <path fill-rule="evenodd" clip-rule="evenodd" fill="#FFFFFF" d="M271.712 520.133c-0.562-0.277-0.807-0.946-0.544-1.491 s0.947-0.788 1.525-0.545c0.578 0.2 0.8 0.9 0.5 1.491C272.958 520.2 272.3 520.4 271.7 520.133z"/>
            </g>
          </g>
          <g>
            <g>
              <polygon fill="none" points="269.8,521.4 268.7,523.3 270.6,524.5 271.8,522.5"/>
              <path fill-rule="evenodd" clip-rule="evenodd" fill="#FFFFFF" d="M269.644 523.904c-0.533-0.33-0.712-1.019-0.398-1.536 c0.315-0.517 1.019-0.693 1.571-0.396c0.552 0.3 0.7 1 0.4 1.535C270.882 524.1 270.2 524.2 269.6 523.904z"/>
            </g>
          </g>
          <g>
            <g>
              <polygon fill="none" points="267.6,525 266.3,526.8 268.1,528.1 269.5,526.3"/>
              <path fill-rule="evenodd" clip-rule="evenodd" fill="#FFFFFF" d="M267.227 527.462c-0.5-0.38-0.612-1.081-0.25-1.565 c0.363-0.485 1.082-0.594 1.603-0.244c0.521 0.3 0.6 1.1 0.2 1.564C268.444 527.7 267.7 527.8 267.2 527.462z"/>
            </g>
          </g>
          <g>
            <g>
              <polygon fill="none" points="265.1,528.4 263.6,530 265.3,531.5 266.9,529.8"/>
              <path fill-rule="evenodd" clip-rule="evenodd" fill="#FFFFFF" d="M264.483 530.773c-0.462-0.424-0.507-1.133-0.1-1.581 c0.407-0.448 1.135-0.486 1.618-0.092c0.488 0.4 0.5 1.1 0.1 1.582C265.67 531.2 264.9 531.2 264.5 530.773z"/>
            </g>
          </g>
          <g>
            <g>
              <polygon fill="none" points="262.3,531.5 260.7,533 262.2,534.7 263.9,533.1"/>
              <path fill-rule="evenodd" clip-rule="evenodd" fill="#FFFFFF" d="M261.438 533.812c-0.42-0.467-0.397-1.177 0.051-1.584 c0.447-0.408 1.179-0.373 1.6 0.061c0.453 0.4 0.4 1.151-0.048 1.586C262.583 534.3 261.9 534.3 261.4 533.812z"/>
            </g>
          </g>
          <g>
            <g>
              <path fill="none" d="M259.197 534.312c0 0-0.102 0.093-0.271 0.213c-0.165 0.123-0.386 0.288-0.606 0.5 c-0.441 0.329-0.882 0.659-0.882 0.659l1.362 1.821c0 0 0.463-0.348 0.927-0.693c0.231-0.174 0.463-0.348 0.637-0.479 c0.176-0.127 0.284-0.223 0.284-0.223L259.197 534.312z"/>
              <path fill-rule="evenodd" clip-rule="evenodd" fill="#FFFFFF" d="M258.119 536.549c-0.374-0.504-0.284-1.209 0.201-1.57 c0.483-0.365 1.211-0.258 1.6 0.21c0.413 0.5 0.3 1.188-0.196 1.576C259.213 537.1 258.5 537.1 258.1 536.549z"/>
            </g>
          </g>
          <g>
            <g>
              <path fill="none" d="M255.841 536.834c0-0.001-0.107 0.086-0.288 0.188c-0.176 0.106-0.412 0.249-0.647 0.4 c-0.471 0.286-0.941 0.571-0.941 0.571l1.183 1.942c0 0 0.495-0.301 0.99-0.602c0.248-0.15 0.495-0.302 0.68-0.414 c0.189-0.108 0.302-0.198 0.302-0.198L255.841 536.834z"/>
              <path fill-rule="evenodd" clip-rule="evenodd" fill="#FFFFFF" d="M254.556 538.958c-0.324-0.537-0.167-1.229 0.35-1.544 c0.518-0.312 1.228-0.144 1.6 0.36c0.364 0.5 0.2 1.219-0.343 1.553S254.88 539.5 254.6 538.958z"/>
            </g>
          </g>
          <g>
            <g>
              <path fill="none" d="M252.26 539.023c0 0-0.112 0.082-0.301 0.165c-0.186 0.089-0.434 0.209-0.683 0.3 c-0.496 0.239-0.992 0.478-0.992 0.478l0.993 2.047c0 0 0.522-0.252 1.043-0.504c0.261-0.126 0.521-0.252 0.717-0.346 c0.199-0.089 0.317-0.174 0.317-0.174L252.26 539.023z"/>
              <path fill-rule="evenodd" clip-rule="evenodd" fill="#FFFFFF" d="M250.78 541.018c-0.271-0.566-0.05-1.238 0.496-1.501 c0.548-0.258 1.233-0.031 1.5 0.504c0.312 0.6 0.1 1.241-0.487 1.517C251.741 541.8 251.1 541.6 250.8 541.018z"/>
            </g>
          </g>
          <g>
            <g>
              <path fill="none" d="M248.487 540.861c0 0-0.121 0.066-0.312 0.143c-0.194 0.07-0.453 0.164-0.711 0.3 c-0.517 0.188-1.034 0.377-1.034 0.377l0.792 2.133c0 0 0.544-0.2 1.088-0.399c0.271-0.1 0.543-0.199 0.748-0.274 c0.202-0.08 0.329-0.149 0.329-0.149L248.487 540.861z"/>
              <path fill-rule="evenodd" clip-rule="evenodd" fill="#FFFFFF" d="M246.825 542.707c-0.216-0.589 0.069-1.236 0.638-1.444 c0.574-0.196 1.2 0.1 1.5 0.644c0.256 0.587-0.019 1.258-0.627 1.468C247.706 543.6 247 543.3 246.8 542.707z"/>
            </g>
          </g>
          <g>
            <g>
              <path fill="none" d="M244.556 542.328c0 0-0.129 0.047-0.323 0.118c-0.2 0.052-0.466 0.122-0.732 0.2 c-0.533 0.137-1.066 0.274-1.066 0.274l0.584 2.197c0 0 0.561-0.145 1.122-0.289c0.28-0.074 0.56-0.147 0.77-0.203 c0.204-0.074 0.34-0.124 0.34-0.124L244.556 542.328z"/>
              <path fill-rule="evenodd" clip-rule="evenodd" fill="#FFFFFF" d="M242.727 544.011c-0.159-0.606 0.188-1.223 0.774-1.373 c0.592-0.132 1.2 0.2 1.4 0.772c0.196 0.604-0.135 1.268-0.763 1.41C243.519 545 242.9 544.6 242.7 544.011z"/>
            </g>
          </g>
          <g>
            <g>
              <path fill="none" d="M240.502 543.409c0.013 0.063-2.167 0.386-2.167 0.386l0.372 2.244c0-0.001 2.292-0.343 2.278-0.408 L240.502 543.409z"/>
              <path fill-rule="evenodd" clip-rule="evenodd" fill="#FFFFFF" d="M238.522 544.917c-0.1-0.619 0.304-1.197 0.903-1.288 c0.604-0.068 1.2 0.3 1.3 0.892c0.135 0.604-0.251 1.267-0.891 1.343C239.218 546 238.6 545.5 238.5 544.917z"/>
            </g>
          </g>
          <g>
            <g>
              <path fill="none" d="M236.364 544.096c0 0-0.136 0.021-0.34 0.053c-0.204 0.032-0.476 0.08-0.751 0.1 c-0.55 0.027-1.101 0.055-1.101 0.055l0.158 2.27c0 0 0.578-0.029 1.156-0.06c0.291-0.003 0.576-0.053 0.791-0.087 c0.215-0.031 0.358-0.054 0.358-0.054L236.364 544.096z"/>
              <path fill-rule="evenodd" clip-rule="evenodd" fill="#FFFFFF" d="M234.25 545.42c-0.041-0.625 0.417-1.159 1.021-1.189 c0.605-0.027 1.1 0.4 1.2 0.996c0.076 0.607-0.372 1.238-1.013 1.269C234.844 546.5 234.3 546 234.2 545.42z"/>
            </g>
          </g>
          <g>
            <g>
              <path fill="none" d="M232.178 544.387c0 0-0.55 0.028-1.1 0.057c-0.55-0.028-1.101-0.057-1.101-0.057l-0.056 2.3 c0 0 0.6 0 1.2 0.057c0.578-0.027 1.156-0.057 1.156-0.057L232.178 544.387z"/>
              <path fill-rule="evenodd" clip-rule="evenodd" fill="#FFFFFF" d="M229.95 545.523c0.018-0.627 0.523-1.111 1.128-1.08 c0.605-0.031 1.1 0.5 1.1 1.08c0.018 0.627-0.487 1.162-1.128 1.193C230.437 546.7 229.9 546.1 229.9 545.523z"/>
            </g>
          </g>
          <g>
            <g>
              <path fill="none" d="M227.984 544.285c0 0-0.55-0.027-1.1-0.055c-0.276-0.002-0.548-0.05-0.752-0.082 c-0.204-0.031-0.34-0.053-0.34-0.053l-0.27 2.259c0 0 0.1 0 0.4 0.055c0.215 0 0.5 0.1 0.8 0.1 c0.578 0 1.2 0.1 1.2 0.06L227.984 544.285z"/>
              <path fill-rule="evenodd" clip-rule="evenodd" fill="#FFFFFF" d="M225.657 545.227c0.079-0.638 0.622-1.022 1.227-0.996 c0.605 0 1.1 0.6 1 1.19c-0.041 0.626-0.594 1.107-1.235 1.075C226.029 546.5 225.6 545.8 225.7 545.227z"/>
            </g>
          </g>
          <g>
            <g>
              <path fill="none" d="M223.82 543.795c0 0-2.18-0.321-2.167-0.386l-0.484 2.223c-0.013 0.1 2.3 0.4 2.3 0.4 L223.82 543.795z"/>
              <path fill-rule="evenodd" clip-rule="evenodd" fill="#FFFFFF" d="M221.412 544.521c0.138-0.621 0.717-0.961 1.32-0.893 c0.599 0.1 1 0.7 0.9 1.289c-0.1 0.618-0.695 1.043-1.331 0.945C221.664 545.8 221.3 545.1 221.4 544.521z"/>
            </g>
          </g>
          <g>
            <g>
              <path fill="none" d="M219.722 542.912c0 0-0.533-0.137-1.066-0.273c-0.266-0.07-0.533-0.14-0.732-0.191 c-0.194-0.072-0.323-0.119-0.323-0.119l-0.695 2.166c0 0 0.1 0 0.3 0.123c0.21 0.1 0.5 0.1 0.8 0.2 c0.561 0.1 1.1 0.3 1.1 0.289L219.722 542.912z"/>
              <path fill-rule="evenodd" clip-rule="evenodd" fill="#FFFFFF" d="M217.252 543.411c0.192-0.59 0.811-0.905 1.403-0.772 c0.586 0.1 0.9 0.8 0.8 1.373c-0.158 0.606-0.792 0.97-1.414 0.809C217.388 544.7 217.1 544 217.3 543.411z"/>
            </g>
          </g>
          <g>
            <g>
              <path fill="none" d="M215.727 541.642c0 0-0.517-0.188-1.034-0.378c-0.259-0.094-0.517-0.189-0.711-0.26 c-0.192-0.075-0.313-0.143-0.313-0.143l-0.898 2.09c0 0 0.1 0.1 0.3 0.149c0.204 0.1 0.5 0.2 0.7 0.3 c0.544 0.2 1.1 0.4 1.1 0.398L215.727 541.642z"/>
              <path fill-rule="evenodd" clip-rule="evenodd" fill="#FFFFFF" d="M213.219 541.906c0.245-0.562 0.9-0.839 1.474-0.643 c0.569 0.2 0.9 0.9 0.6 1.444s-0.88 0.888-1.483 0.667C213.239 543.2 213 542.5 213.2 541.906z"/>
            </g>
          </g>
          <g>
            <g>
              <path fill="none" d="M211.872 539.995c0 0-0.497-0.239-0.993-0.478c-0.248-0.119-0.496-0.238-0.682-0.328 c-0.189-0.083-0.302-0.165-0.302-0.165l-1.094 1.994c0 0 0.1 0.1 0.3 0.173c0.196 0.1 0.5 0.2 0.7 0.3 c0.521 0.3 1 0.5 1 0.503L211.872 539.995z"/>
              <path fill-rule="evenodd" clip-rule="evenodd" fill="#FFFFFF" d="M209.348 540.021c0.297-0.535 0.984-0.762 1.532-0.504 c0.545 0.3 0.8 0.9 0.5 1.501s-0.961 0.799-1.54 0.52C209.255 541.3 209 540.6 209.3 540.021z"/>
            </g>
          </g>
          <g>
            <g>
              <path fill="none" d="M208.191 537.987c0 0-0.471-0.286-0.941-0.571c-0.235-0.143-0.471-0.285-0.647-0.393 c-0.18-0.102-0.287-0.189-0.287-0.189l-1.279 1.882c0-0.001 0.1 0.1 0.3 0.198c0.186 0.1 0.4 0.3 0.7 0.4 c0.495 0.3 1 0.6 1 0.602L208.191 537.987z"/>
              <path fill-rule="evenodd" clip-rule="evenodd" fill="#FFFFFF" d="M205.675 537.775c0.346-0.504 1.057-0.674 1.575-0.359 s0.673 1 0.3 1.543c-0.324 0.537-1.032 0.703-1.581 0.369S205.311 538.3 205.7 537.775z"/>
            </g>
          </g>
          <g>
            <g>
              <path fill="none" d="M204.717 535.639c0 0-0.441-0.33-0.882-0.659c-0.221-0.165-0.441-0.329-0.606-0.453 c-0.168-0.12-0.271-0.212-0.271-0.212l-1.451 1.751c0 0 0.1 0.1 0.3 0.224c0.174 0.1 0.4 0.3 0.6 0.5 c0.463 0.3 0.9 0.7 0.9 0.694L204.717 535.639z"/>
              <path fill-rule="evenodd" clip-rule="evenodd" fill="#FFFFFF" d="M202.232 535.19c0.392-0.469 1.121-0.575 1.604-0.211 c0.485 0.4 0.6 1.1 0.2 1.57c-0.373 0.504-1.094 0.603-1.608 0.217C201.917 536.4 201.8 535.7 202.2 535.19z"/>
            </g>
          </g>
          <g>
            <g>
              <polygon fill="none" points="201.5,533 199.9,531.5 198.2,533.1 200,534.7"/>
              <path fill-rule="evenodd" clip-rule="evenodd" fill="#FFFFFF" d="M199.049 532.291c0.439-0.435 1.171-0.469 1.618-0.061 c0.449 0.4 0.5 1.1 0.1 1.584c-0.419 0.465-1.145 0.494-1.621 0.062C198.624 533.4 198.6 532.7 199 532.291z"/>
            </g>
          </g>
          <g>
            <g>
              <polygon fill="none" points="198.5,530 197,528.4 195.3,529.8 196.8,531.5"/>
              <path fill-rule="evenodd" clip-rule="evenodd" fill="#FFFFFF" d="M196.154 529.103c0.483-0.395 1.211-0.356 1.6 0.1 c0.408 0.4 0.4 1.156-0.1 1.58c-0.461 0.425-1.187 0.385-1.619-0.091C195.623 530.2 195.7 529.5 196.2 529.103z"/>
            </g>
          </g>
          <g>
            <g>
              <polygon fill="none" points="195.8,526.8 194.5,525 192.6,526.3 194,528.1"/>
              <path fill-rule="evenodd" clip-rule="evenodd" fill="#FFFFFF" d="M193.575 525.654c0.521-0.35 1.24-0.241 1.6 0.2 c0.363 0.5 0.2 1.186-0.25 1.565c-0.5 0.379-1.217 0.271-1.602-0.245C192.942 526.7 193.1 526 193.6 525.654z"/>
            </g>
          </g>
          <g>
            <g>
              <polygon fill="none" points="193.5,523.3 192.3,521.4 190.3,522.5 191.5,524.5"/>
              <path fill-rule="evenodd" clip-rule="evenodd" fill="#FFFFFF" d="M191.337 521.975c0.552-0.298 1.256-0.121 1.6 0.4 c0.314 0.5 0.1 1.205-0.398 1.535c-0.533 0.33-1.237 0.153-1.57-0.396C190.607 523 190.8 522.3 191.3 521.975z"/>
            </g>
          </g>
          <g>
            <g>
              <polygon fill="none" points="191.5,519.6 190.5,517.7 188.4,518.5 189.4,520.6"/>
              <path fill-rule="evenodd" clip-rule="evenodd" fill="#FFFFFF" d="M189.461 518.1c0.578-0.244 1.262-0.001 1.5 0.5 c0.263 0.5 0 1.213-0.544 1.49c-0.562 0.278-1.246 0.034-1.524-0.545C188.639 519 188.9 518.3 189.5 518.1z"/>
            </g>
          </g>
          <g>
            <g>
              <polygon fill="none" points="189.8,515.8 189.1,513.7 186.9,514.4 187.7,516.6"/>
              <path fill-rule="evenodd" clip-rule="evenodd" fill="#FFFFFF" d="M187.966 514.062c0.599-0.188 1.3 0.1 1.5 0.7 c0.208 0.568-0.101 1.21-0.687 1.433s-1.242-0.085-1.462-0.688C187.06 514.9 187.4 514.2 188 514.062z"/>
            </g>
          </g>
          <g>
            <g>
              <polygon fill="none" points="188.5,511.8 188,509.7 185.8,510.1 186.3,512.4"/>
              <path fill-rule="evenodd" clip-rule="evenodd" fill="#FFFFFF" d="M186.866 509.9c0.614-0.13 1.2 0.2 1.4 0.8 c0.151 0.587-0.219 1.196-0.825 1.361c-0.604 0.166-1.226-0.204-1.386-0.826C185.883 510.6 186.3 510 186.9 509.9z"/>
            </g>
          </g>
          <g>
            <g>
              <polygon fill="none" points="187.6,507.7 187.3,505.5 185,505.8 185.4,508.1"/>
              <path fill-rule="evenodd" clip-rule="evenodd" fill="#FFFFFF" d="M186.171 505.652c0.624-0.07 1.2 0.4 1.3 1 c0.091 0.599-0.338 1.171-0.956 1.277c-0.618 0.107-1.199-0.32-1.296-0.956C185.12 506.3 185.5 505.7 186.2 505.652z"/>
            </g>
          </g>
          <g>
            <g>
              <polygon fill="none" points="187.1,503.5 187,501.3 184.7,501.4 184.9,503.7"/>
              <path fill-rule="evenodd" clip-rule="evenodd" fill="#FFFFFF" d="M185.884 501.358c0.627-0.011 1.2 0.5 1.2 1.1 c0.03 0.605-0.454 1.134-1.08 1.182c-0.625 0.048-1.16-0.433-1.192-1.074S185.257 501.4 185.9 501.358z"/>
            </g>
          </g>
          <g>
            <g>
              <polygon fill="none" points="187,499.3 187.1,497.1 184.9,497 184.7,499.3"/>
              <path fill-rule="evenodd" clip-rule="evenodd" fill="#FFFFFF" d="M185.998 497.058c0.626 0 1.1 0.6 1.1 1.2 c-0.031 0.604-0.566 1.086-1.193 1.074c-0.627-0.011-1.111-0.54-1.079-1.182C184.837 497.5 185.4 497 186 497.058z "/>
            </g>
          </g>
          <g>
            <g>
              <polygon fill="none" points="187.3,495.2 187.6,493 185.4,492.6 185,494.9"/>
              <path fill-rule="evenodd" clip-rule="evenodd" fill="#FFFFFF" d="M186.512 492.787c0.618 0.1 1 0.7 1 1.3 c-0.091 0.598-0.673 1.025-1.296 0.956c-0.623-0.07-1.052-0.643-0.955-1.277C185.312 493.1 185.9 492.7 186.5 492.787z "/>
            </g>
          </g>
          <g>
            <g>
              <polygon fill="none" points="188,491 188.5,488.9 186.3,488.3 185.8,490.5"/>
              <path fill-rule="evenodd" clip-rule="evenodd" fill="#FFFFFF" d="M187.428 488.585c0.605 0.2 1 0.8 0.8 1.4 c-0.151 0.587-0.773 0.956-1.387 0.827c-0.613-0.129-0.983-0.738-0.824-1.361C186.202 488.8 186.8 488.4 187.4 488.585z"/>
            </g>
          </g>
          <g>
            <g>
              <polygon fill="none" points="189,487 189.8,484.9 187.7,484.1 186.9,486.3"/>
              <path fill-rule="evenodd" clip-rule="evenodd" fill="#FFFFFF" d="M188.741 484.489c0.587 0.2 0.9 0.9 0.7 1.4 s-0.865 0.876-1.463 0.688c-0.598-0.188-0.907-0.829-0.686-1.433S188.155 484.3 188.7 484.489z"/>
            </g>
          </g>
          <g>
            <g>
              <polygon fill="none" points="190.5,483 191.5,481 189.4,480 188.4,482.1"/>
              <path fill-rule="evenodd" clip-rule="evenodd" fill="#FFFFFF" d="M190.44 480.538c0.562 0.3 0.8 0.9 0.5 1.5 c-0.263 0.545-0.947 0.788-1.525 0.545c-0.578-0.244-0.822-0.912-0.543-1.491C189.195 480.5 189.9 480.3 190.4 480.538z "/>
            </g>
          </g>
          <g>
            <g>
              <polygon fill="none" points="192.3,479.2 193.5,477.4 191.5,476.2 190.3,478.2"/>
              <path fill-rule="evenodd" clip-rule="evenodd" fill="#FFFFFF" d="M192.509 476.767c0.534 0.3 0.7 1 0.4 1.5 c-0.315 0.517-1.02 0.693-1.571 0.396s-0.731-0.985-0.397-1.534C191.271 476.6 192 476.4 192.5 476.767z"/>
            </g>
          </g>
          <g>
            <g>
              <polygon fill="none" points="194.5,475.7 195.8,473.9 194,472.5 192.6,474.4"/>
              <path fill-rule="evenodd" clip-rule="evenodd" fill="#FFFFFF" d="M194.927 473.21c0.5 0.4 0.6 1.1 0.2 1.6 c-0.363 0.484-1.082 0.593-1.603 0.244c-0.521-0.35-0.633-1.05-0.249-1.564C193.709 472.9 194.4 472.8 194.9 473.21z"/>
            </g>
          </g>
          <g>
            <g>
              <polygon fill="none" points="197,472.3 198.5,470.7 196.8,469.1 195.3,470.8"/>
              <path fill-rule="evenodd" clip-rule="evenodd" fill="#FFFFFF" d="M197.67 469.897c0.462 0.4 0.5 1.1 0.1 1.6 c-0.407 0.449-1.135 0.486-1.618 0.092c-0.488-0.398-0.532-1.105-0.101-1.581C196.483 469.5 197.2 469.5 197.7 469.897z "/>
            </g>
          </g>
          <g>
            <g>
              <polygon fill="none" points="199.9,469.2 201.5,467.7 200,466 198.2,467.6"/>
              <path fill-rule="evenodd" clip-rule="evenodd" fill="#FFFFFF" d="M200.716 466.859c0.419 0.5 0.4 1.176-0.051 1.6 c-0.447 0.408-1.179 0.373-1.618-0.061c-0.453-0.448-0.426-1.152 0.048-1.586C199.57 466.4 200.3 466.4 200.7 466.859z "/>
            </g>
          </g>
          <g>
            <g>
              <path fill="none" d="M202.956 466.359c0 0 0.102-0.093 0.271-0.213c0.166-0.123 0.386-0.288 0.607-0.453 c0.441-0.33 0.882-0.659 0.882-0.659l-1.362-1.821c0 0-0.464 0.347-0.927 0.693c-0.232 0.174-0.463 0.348-0.637 0.5 c-0.177 0.127-0.284 0.224-0.284 0.224L202.956 466.359z"/>
              <path fill-rule="evenodd" clip-rule="evenodd" fill="#FFFFFF" d="M204.034 464.123c0.374 0.5 0.3 1.209-0.201 1.6 c-0.483 0.365-1.211 0.258-1.603-0.211c-0.413-0.494-0.316-1.188 0.196-1.576C202.94 463.5 203.7 463.6 204 464.123z "/>
            </g>
          </g>
          <g>
            <g>
              <path fill="none" d="M206.313 463.838c0 0 0.107-0.086 0.287-0.188c0.177-0.106 0.412-0.25 0.647-0.393 c0.471-0.286 0.941-0.571 0.941-0.571l-1.183-1.942c0 0-0.495 0.301-0.99 0.602c-0.247 0.15-0.495 0.301-0.68 0.4 c-0.188 0.108-0.302 0.198-0.302 0.198L206.313 463.838z"/>
              <path fill-rule="evenodd" clip-rule="evenodd" fill="#FFFFFF" d="M207.597 461.714c0.324 0.5 0.2 1.229-0.35 1.5 c-0.518 0.313-1.228 0.145-1.574-0.359c-0.364-0.53-0.206-1.219 0.343-1.553S207.273 461.2 207.6 461.714z"/>
            </g>
          </g>
          <g>
            <g>
              <path fill="none" d="M209.894 461.648c0 0 0.112-0.082 0.301-0.165c0.187-0.09 0.435-0.209 0.683-0.328 c0.496-0.239 0.992-0.478 0.992-0.478l-0.993-2.047c0 0-0.521 0.252-1.043 0.504c-0.261 0.125-0.521 0.252-0.717 0.3 c-0.199 0.088-0.317 0.174-0.317 0.174L209.894 461.648z"/>
              <path fill-rule="evenodd" clip-rule="evenodd" fill="#FFFFFF" d="M211.373 459.654c0.271 0.6 0.1 1.238-0.496 1.5 c-0.548 0.258-1.234 0.031-1.531-0.505c-0.311-0.561-0.094-1.24 0.487-1.516C210.412 458.9 211.1 459.1 211.4 459.654z "/>
            </g>
          </g>
          <g>
            <g>
              <path fill="none" d="M213.667 459.811c0 0 0.121-0.066 0.313-0.143c0.194-0.07 0.453-0.165 0.711-0.26 c0.517-0.188 1.034-0.377 1.034-0.377l-0.792-2.133c0 0-0.544 0.199-1.087 0.398c-0.272 0.101-0.544 0.2-0.748 0.3 c-0.202 0.08-0.33 0.149-0.33 0.149L213.667 459.811z"/>
              <path fill-rule="evenodd" clip-rule="evenodd" fill="#FFFFFF" d="M215.328 457.965c0.216 0.589-0.069 1.236-0.638 1.4 c-0.574 0.197-1.228-0.08-1.474-0.643c-0.255-0.587 0.02-1.258 0.627-1.468C214.448 457.1 215.1 457.4 215.3 457.965z"/>
            </g>
          </g>
          <g>
            <g>
              <path fill="none" d="M217.598 458.344c0 0 0.129-0.047 0.323-0.118c0.2-0.052 0.466-0.122 0.732-0.192 c0.533-0.137 1.067-0.273 1.067-0.273l-0.585-2.197c0 0-0.561 0.145-1.122 0.289c-0.28 0.074-0.56 0.147-0.77 0.2 c-0.204 0.074-0.34 0.124-0.34 0.124L217.598 458.344z"/>
              <path fill-rule="evenodd" clip-rule="evenodd" fill="#FFFFFF" d="M219.427 456.66c0.159 0.607-0.188 1.224-0.774 1.4 c-0.592 0.133-1.21-0.182-1.402-0.772c-0.196-0.603 0.134-1.267 0.762-1.409C218.635 455.7 219.3 456.1 219.4 456.66z"/>
            </g>
          </g>
          <g>
            <g>
              <path fill="none" d="M221.651 457.263c-0.013-0.064 2.167-0.386 2.167-0.386l-0.373-2.244c0 0.001-2.292 0.343-2.278 0.4 L221.651 457.263z"/>
              <path fill-rule="evenodd" clip-rule="evenodd" fill="#FFFFFF" d="M223.631 455.754c0.1 0.62-0.304 1.197-0.903 1.3 c-0.603 0.067-1.181-0.271-1.319-0.893c-0.135-0.603 0.251-1.267 0.891-1.342C222.936 454.7 223.5 455.1 223.6 455.8 z"/>
            </g>
          </g>
          <g>
            <g>
              <path fill="none" d="M225.79 456.575c0 0 0.136-0.021 0.34-0.052c0.204-0.032 0.476-0.081 0.752-0.083 c0.55-0.027 1.1-0.055 1.1-0.055l-0.158-2.269c0 0-0.578 0.029-1.156 0.059c-0.29 0.004-0.576 0.054-0.791 0.1 c-0.215 0.032-0.358 0.054-0.358 0.054L225.79 456.575z"/>
              <path fill-rule="evenodd" clip-rule="evenodd" fill="#FFFFFF" d="M227.903 455.251c0.041 0.626-0.417 1.159-1.022 1.2 c-0.605 0.027-1.148-0.357-1.227-0.995c-0.076-0.607 0.371-1.238 1.013-1.27C227.309 454.1 227.9 454.6 227.9 455.251z "/>
            </g>
          </g>
          <g>
            <g>
              <path fill="none" d="M229.975 456.285c0 0 0.55-0.028 1.101-0.057c0.55 0 1.1 0.1 1.1 0.057l0.056-2.273 c0 0-0.578-0.029-1.157-0.058c-0.578 0.028-1.156 0.058-1.156 0.058L229.975 456.285z"/>
              <path fill-rule="evenodd" clip-rule="evenodd" fill="#FFFFFF" d="M232.204 455.147c-0.018 0.628-0.523 1.112-1.128 1.1 c-0.605 0.031-1.11-0.453-1.128-1.081c-0.019-0.626 0.486-1.162 1.128-1.193C231.717 454 232.2 454.5 232.2 455.147z "/>
            </g>
          </g>
          <g>
            <g>
              <path fill="none" d="M234.169 456.386c0 0 0.6 0 1.1 0.055c0.276 0 0.5 0.1 0.8 0.1 c0.204 0 0.3 0.1 0.3 0.052l0.27-2.258c0 0-0.143-0.021-0.358-0.055s-0.5-0.082-0.791-0.086 c-0.578-0.029-1.156-0.059-1.156-0.059L234.169 456.386z"/>
              <path fill-rule="evenodd" clip-rule="evenodd" fill="#FFFFFF" d="M236.497 455.445c-0.079 0.637-0.622 1.021-1.228 1 c-0.605-0.03-1.062-0.563-1.021-1.19c0.041-0.625 0.593-1.107 1.235-1.074C236.125 454.2 236.6 454.8 236.5 455.445z"/>
            </g>
          </g>
          <g>
            <g>
              <path fill="none" d="M238.333 456.877c0 0 2.2 0.3 2.2 0.385l0.484-2.223c0.013-0.064-2.278-0.406-2.278-0.406 L238.333 456.877z"/>
              <path fill-rule="evenodd" clip-rule="evenodd" fill="#FFFFFF" d="M240.742 456.15c-0.138 0.621-0.717 0.959-1.32 0.9 c-0.599-0.091-1.002-0.669-0.902-1.288s0.695-1.043 1.331-0.945C240.49 454.9 240.9 455.5 240.7 456.15z"/>
            </g>
          </g>
          <g>
            <g>
              <path fill="none" d="M242.432 457.76c0 0 0.5 0.1 1.1 0.273c0.267 0.1 0.5 0.1 0.7 0.2 c0.194 0.1 0.3 0.1 0.3 0.119l0.694-2.166c0 0-0.136-0.05-0.34-0.125c-0.21-0.055-0.49-0.129-0.77-0.202 c-0.561-0.145-1.122-0.289-1.122-0.289L242.432 457.76z"/>
              <path fill-rule="evenodd" clip-rule="evenodd" fill="#FFFFFF" d="M244.901 457.26c-0.192 0.59-0.811 0.905-1.403 0.8 c-0.586-0.15-0.933-0.766-0.774-1.373c0.158-0.607 0.792-0.971 1.414-0.81C244.766 456 245.1 456.7 244.9 457.26z"/>
            </g>
          </g>
          <g>
            <g>
              <path fill="none" d="M246.426 459.029c0 0 0.5 0.2 1 0.379c0.259 0.1 0.5 0.2 0.7 0.3 c0.192 0.1 0.3 0.1 0.3 0.143l0.898-2.089c0 0-0.127-0.07-0.329-0.15c-0.204-0.074-0.476-0.174-0.748-0.273 c-0.544-0.199-1.088-0.398-1.088-0.398L246.426 459.029z"/>
              <path fill-rule="evenodd" clip-rule="evenodd" fill="#FFFFFF" d="M248.934 458.765c-0.245 0.563-0.9 0.839-1.474 0.6 c-0.569-0.208-0.854-0.855-0.638-1.445c0.216-0.588 0.88-0.888 1.483-0.666C248.915 457.5 249.2 458.2 248.9 458.765z"/>
            </g>
          </g>
          <g>
            <g>
              <path fill="none" d="M250.281 460.676c0 0 0.5 0.2 1 0.479c0.248 0.1 0.5 0.2 0.7 0.3 c0.189 0.1 0.3 0.2 0.3 0.164l1.094-1.993c0-0.001-0.118-0.085-0.317-0.174c-0.196-0.095-0.457-0.22-0.717-0.347 c-0.521-0.251-1.043-0.503-1.043-0.503L250.281 460.676z"/>
              <path fill-rule="evenodd" clip-rule="evenodd" fill="#FFFFFF" d="M252.805 460.649c-0.297 0.536-0.984 0.763-1.532 0.5 c-0.545-0.263-0.767-0.936-0.495-1.502c0.271-0.564 0.96-0.799 1.539-0.52C252.898 459.4 253.1 460.1 252.8 460.649z"/>
            </g>
          </g>
          <g>
            <g>
              <path fill="none" d="M253.962 462.684c0 0 0.5 0.3 0.9 0.572c0.235 0.1 0.5 0.3 0.6 0.4 c0.18 0.1 0.3 0.2 0.3 0.188l1.279-1.881c0 0-0.113-0.091-0.302-0.198c-0.186-0.113-0.433-0.264-0.68-0.414 c-0.495-0.301-0.99-0.602-0.99-0.602L253.962 462.684z"/>
              <path fill-rule="evenodd" clip-rule="evenodd" fill="#FFFFFF" d="M256.478 462.896c-0.346 0.504-1.057 0.673-1.575 0.4 c-0.518-0.314-0.673-1.006-0.349-1.543c0.324-0.537 1.032-0.703 1.581-0.369S256.842 462.4 256.5 462.896z"/>
            </g>
          </g>
          <g>
            <g>
              <path fill="none" d="M257.436 465.033c0 0 0.4 0.3 0.9 0.658c0.221 0.2 0.4 0.3 0.6 0.5 c0.168 0.1 0.3 0.2 0.3 0.213l1.451-1.752c0 0-0.107-0.096-0.284-0.223c-0.174-0.131-0.405-0.305-0.637-0.478 c-0.463-0.347-0.927-0.694-0.927-0.694L257.436 465.033z"/>
              <path fill-rule="evenodd" clip-rule="evenodd" fill="#FFFFFF" d="M259.921 465.481c-0.392 0.468-1.121 0.575-1.604 0.2 c-0.485-0.361-0.574-1.065-0.201-1.57c0.373-0.504 1.094-0.602 1.608-0.217C260.237 464.3 260.3 465 259.9 465.481z"/>
            </g>
          </g>
          <g>
            <g>
              <polygon fill="none" points="260.7,467.7 262.3,469.2 263.9,467.6 262.2,466"/>
              <path fill-rule="evenodd" clip-rule="evenodd" fill="#FFFFFF" d="M263.104 468.381c-0.439 0.435-1.171 0.469-1.618 0.1 c-0.449-0.408-0.47-1.117-0.051-1.584c0.419-0.466 1.145-0.495 1.62-0.062C263.53 467.2 263.6 467.9 263.1 468.381z"/>
            </g>
          </g>
          <g>
            <g>
              <polygon fill="none" points="263.6,470.7 265.1,472.3 266.9,470.8 265.3,469.1"/>
              <path fill-rule="evenodd" clip-rule="evenodd" fill="#FFFFFF" d="M266 471.568c-0.483 0.396-1.211 0.357-1.618-0.092 c-0.408-0.447-0.362-1.156 0.1-1.581s1.187-0.384 1.6 0.091C266.531 470.5 266.5 471.2 266 471.568z"/>
            </g>
          </g>
          <g>
            <g>
              <polygon fill="none" points="266.3,473.9 267.6,475.7 269.5,474.4 268.1,472.5"/>
              <path fill-rule="evenodd" clip-rule="evenodd" fill="#FFFFFF" d="M268.578 475.018c-0.521 0.349-1.24 0.24-1.603-0.245 c-0.363-0.484-0.25-1.186 0.25-1.564c0.5-0.379 1.217-0.271 1.6 0.244C269.211 474 269.1 474.7 268.6 475.018z"/>
            </g>
          </g>
          <g>
            <g>
              <polygon fill="none" points="268.7,477.4 269.8,479.2 271.8,478.2 270.6,476.2"/>
              <path fill-rule="evenodd" clip-rule="evenodd" fill="#FFFFFF" d="M270.816 478.696c-0.552 0.298-1.257 0.121-1.572-0.396 c-0.314-0.518-0.135-1.205 0.398-1.535c0.533-0.33 1.237-0.153 1.6 0.396C271.547 477.7 271.4 478.4 270.8 478.696z"/>
            </g>
          </g>
          <g>
            <g>
              <polygon fill="none" points="270.7,481 271.6,483 273.7,482.1 272.7,480"/>
              <path fill-rule="evenodd" clip-rule="evenodd" fill="#FFFFFF" d="M272.692 482.571c-0.578 0.244-1.262 0.001-1.525-0.545 c-0.263-0.545-0.019-1.213 0.544-1.49c0.562-0.277 1.245-0.034 1.5 0.545C273.514 481.7 273.3 482.3 272.7 482.571z"/>
            </g>
          </g>
          <g>
            <g>
              <polygon fill="none" points="272.3,484.9 273.1,487 275.3,486.3 274.5,484.1"/>
              <path fill-rule="evenodd" clip-rule="evenodd" fill="#FFFFFF" d="M274.188 486.609c-0.599 0.188-1.255-0.121-1.463-0.689 s0.1-1.21 0.687-1.433c0.586-0.223 1.2 0.1 1.5 0.688C275.094 485.8 274.8 486.4 274.2 486.609z"/>
            </g>
          </g>
          <g>
            <g>
              <polygon fill="none" points="273.6,488.9 274.2,491 276.4,490.5 275.8,488.3"/>
              <path fill-rule="evenodd" clip-rule="evenodd" fill="#FFFFFF" d="M275.287 490.771c-0.614 0.13-1.236-0.24-1.387-0.826 c-0.151-0.587 0.22-1.196 0.825-1.361c0.605-0.166 1.2 0.2 1.4 0.826C276.271 490 275.9 490.6 275.3 490.771z"/>
            </g>
          </g>
          <g>
            <g>
              <polygon fill="none" points="274.5,493 274.9,495.2 277.1,494.9 276.8,492.6"/>
              <path fill-rule="evenodd" clip-rule="evenodd" fill="#FFFFFF" d="M275.982 495.019c-0.624 0.07-1.206-0.358-1.297-0.956 c-0.092-0.599 0.337-1.171 0.956-1.277c0.618-0.107 1.2 0.3 1.3 0.956C277.034 494.4 276.6 494.9 276 495.019z"/>
            </g>
          </g>
          <g>
            <g>
              <polygon fill="none" points="275,497.1 275.1,499.3 277.4,499.3 277.3,497"/>
              <path fill-rule="evenodd" clip-rule="evenodd" fill="#FFFFFF" d="M276.27 499.312c-0.627 0.011-1.163-0.471-1.193-1.075 c-0.031-0.605 0.454-1.134 1.079-1.182s1.16 0.4 1.2 1.074C277.38 498.8 276.9 499.3 276.3 499.312z"/>
            </g>
          </g>
        </g>
      </g>
    </g>
    <g>
      <path fill="#FFFFFF" d="M209.894 501.831h3.807v-34.265h-3.807v-0.691h8.06v23.634h0.544l9.839-8.505h-3.511v-0.691h7.664v0.691 h-2.967l-7.713 6.626l10.927 13.201h2.126v0.692h-11.125v-0.692h3.511l-8.751-10.63h-0.544v10.63h2.719v0.692h-10.779V501.831z"/>
    </g>
    <g>
      <path fill="#FFFFFF" d="M228.415 534.863h3.807v-33.672h-3.807V500.5h7.96v4.153h0.099c0.495-1.385 1.311-2.53 2.448-3.437 s2.612-1.359 4.425-1.359c1.417 0 2.8 0.3 4 0.914c1.252 0.6 2.4 1.4 3.3 2.4 c0.956 1 1.7 2.2 2.3 3.535c0.561 1.4 0.8 2.8 0.8 4.252c0 1.517-0.289 2.959-0.865 4.3 c-0.577 1.368-1.36 2.579-2.349 3.634c-0.989 1.056-2.134 1.896-3.437 2.521s-2.678 0.939-4.128 0.9 c-1.121 0-2.069-0.19-2.843-0.568c-0.775-0.379-1.409-0.823-1.903-1.335c-0.495-0.511-0.874-1.038-1.137-1.582 c-0.264-0.544-0.445-0.98-0.544-1.311h-0.099v17.256h3.807v0.692h-11.866V534.863z M248.835 510.4 c0-1.516-0.083-2.876-0.247-4.079c-0.166-1.203-0.454-2.232-0.865-3.091c-0.413-0.856-0.989-1.516-1.731-1.978 c-0.742-0.461-1.689-0.692-2.843-0.692c-1.22 0-2.225 0.215-3.017 0.643c-0.791 0.43-1.434 0.974-1.928 1.6 c-0.363 0.462-0.652 0.957-0.865 1.483c-0.215 0.527-0.388 1.154-0.52 1.879c-0.132 0.726-0.223 1.558-0.272 2.5 s-0.074 2.052-0.074 3.338c0 1.1 0.1 2.2 0.2 3.362c0.165 1.2 0.5 2.2 0.9 3.14c0.461 0.9 1.1 1.7 2 2.3 c0.84 0.6 2 0.9 3.3 0.89c1.351 0 2.422-0.263 3.214-0.791c0.791-0.526 1.384-1.285 1.78-2.274 c0.396-0.988 0.643-2.183 0.742-3.585C248.786 513.7 248.8 512.1 248.8 510.389z"/>
    </g>
    <rect x="93" y="560.1" fill="none" width="366.5" height="52.8"/>
    <text transform="matrix(1 0 0 1 93.0356 596.2041)" font-family="'Didot'" font-size="50">kelley potter</text>
  </svg>